# xmcd CD database file
#
# Track frame offsets:
#	150
#	13900
#	30050
#	46537
#	62162
#	79250
#	95037
#	110600
#	127950
#	148575
#	160488
#	176613
#	192025
#	209888
#	223113
#	237135
#	246840
#
# Disc length: 3545 seconds
#
# Revision: 0
# Processed by: cddbd v1.5.1PL0 Copyright (c) Steve Scherf et al.
# Submitted via: CDex 1.51
#
DISCID=ef0dd711
DTITLE=Various Artist - American Style The Best Of New Country Music CD 2
DYEAR=1997
DGENRE=Country
TTITLE0=Ricochet - Daddy's Money
TTITLE1=Johnny Cash - Johnny 99
TTITLE2=Exile - Hang On To Your Heart
TTITLE3=Charlie Daniels Band - Boogie Woogie Fiddle Country Blues
TTITLE4=Rodney Crowl - Lovin' All Night
TTITLE5=Darden Smith - 2000 Years
TTITLE6=James McMurtry - Talking At The Texaco
TTITLE7=Ty Herndon - Livin In A Moment
TTITLE8=Patty Loveless - Lonley Too Long
TTITLE9=Dixiana - That's What Im Working Tonight
TTITLE10=James Bonamy - I Don't Think I Will
TTITLE11=Shenandoah - Mama Knows
TTITLE12=Collin Raye - Little Rock
TTITLE13=Russell Smith - Not Made Of Stone
TTITLE14=Ricky Van Shelton  - I'll Leave This World Loving You
TTITLE15=Bobby Cryner - I Don't Care
TTITLE16=                                                                                                                                                                                
EXTD=YEAR: 1997
EXTT0=
EXTT1=
EXTT2=
EXTT3=
EXTT4=
EXTT5=
EXTT6=
EXTT7=
EXTT8=
EXTT9=
EXTT10=
EXTT11=
EXTT12=
EXTT13=
EXTT14=
EXTT15=
EXTT16=
PLAYORDER=
